<?xml version="1.0" standalone="no"?>
<!DOCTYPE svg PUBLIC "-//W3C//DTD SVG 20010904//EN"
 "http://www.w3.org/TR/2001/REC-SVG-20010904/DTD/svg10.dtd">
<svg version="1.0" xmlns="http://www.w3.org/2000/svg"
 width="260.000000pt" height="260.000000pt" viewBox="0 0 260.000000 260.000000"
 preserveAspectRatio="xMidYMid meet">
<metadata>
Created by potrace 1.14, written by Peter Selinger 2001-2017
</metadata>
<g transform="translate(0.000000,260.000000) scale(0.100000,-0.100000)"
fill="#000000" stroke="none">
<path d="M0 2139 l0 -461 22 14 c165 105 261 159 296 166 l43 10 -6 -41 c-3
-23 -7 -69 -10 -102 -2 -33 -16 -109 -30 -170 -13 -60 -30 -148 -36 -195 -13
-94 -7 -291 9 -330 l11 -25 0 26 c1 14 4 28 7 32 3 3 8 72 10 154 2 81 10 184
17 228 l12 80 23 -140 c16 -103 22 -182 22 -300 0 -88 1 -167 2 -175 3 -35 -3
-67 -15 -84 -13 -17 -17 -16 -68 23 -30 22 -59 41 -65 41 -6 0 -23 -9 -37 -20
l-25 -20 -26 47 c-15 25 -29 57 -32 70 -8 29 -32 30 -84 3 l-40 -20 0 -475 0
-475 469 0 c434 0 476 1 553 20 81 19 155 28 428 50 74 6 146 13 160 15 39 7
-17 -10 -160 -50 l-125 -34 378 0 377 -1 -29 46 c-27 45 -28 48 -15 93 7 25
31 91 54 146 23 55 48 123 55 150 10 38 14 43 14 22 2 -78 -24 -282 -45 -355
-13 -45 -24 -87 -24 -92 0 -6 22 -10 49 -10 58 0 54 -7 76 140 35 231 48 418
40 591 -1 42 1 82 5 89 14 23 25 -200 25 -512 0 -198 3 -299 9 -285 19 44 11
596 -12 867 -28 333 -35 471 -23 445 5 -11 10 -15 11 -10 1 6 3 15 5 20 1 6 3
24 4 40 3 39 72 -179 78 -247 3 -26 -2 -102 -11 -170 -26 -197 -26 -208 -6
-113 11 50 22 125 26 168 4 43 10 74 14 70 11 -12 126 -478 154 -623 20 -105
43 -255 59 -385 2 -16 5 51 5 150 2 156 -8 297 -33 462 l-5 38 15 -30 c8 -16
15 -39 15 -50 1 -11 4 -14 7 -8 6 16 -55 197 -145 428 -39 99 -89 236 -112
304 -36 107 -40 126 -28 135 8 6 17 18 20 26 2 8 17 -19 32 -60 55 -148 49
-138 56 -110 3 14 15 26 28 30 13 3 51 30 87 60 l64 55 0 452 1 452 -35 58
c-19 32 -47 73 -62 91 l-28 33 -380 -3 -380 -3 60 -34 c76 -42 184 -123 261
-194 51 -48 69 -73 121 -184 63 -133 101 -234 133 -363 35 -139 30 -146 -14
-20 -61 173 -59 148 8 -90 6 -21 5 -22 -4 -7 -6 9 -16 15 -21 11 -5 -3 -16 0
-24 6 -12 10 -15 9 -15 -3 0 -10 -6 -14 -15 -11 -9 4 -18 -2 -24 -17 -9 -23
-10 -23 -10 7 -1 53 -69 435 -90 504 -37 127 -54 143 -27 25 13 -52 13 -57 0
-41 -12 17 -14 -2 -15 -165 -2 -184 -2 -184 -13 -102 -14 94 -26 118 -26 52 0
-24 -5 -51 -10 -59 -8 -12 -10 -11 -10 7 0 23 -20 43 -21 21 0 -7 -9 21 -20
62 -36 142 -108 308 -160 370 -20 24 -20 24 1 -12 47 -82 99 -197 119 -264 29
-97 51 -252 50 -349 l0 -80 -34 120 c-19 66 -42 140 -51 165 -33 90 -106 261
-110 257 -3 -2 11 -40 29 -83 42 -99 100 -272 127 -384 11 -47 26 -98 32 -113
6 -15 9 -30 6 -32 -3 -3 -17 32 -32 77 -16 46 -35 94 -43 108 -9 16 -12 18 -8
5 12 -36 45 -215 44 -238 0 -12 -11 25 -25 83 -32 140 -75 280 -86 280 -5 0
-6 5 -3 10 3 6 2 10 -3 10 -5 0 -20 26 -33 58 -30 75 -129 275 -134 270 -2 -2
12 -37 32 -78 37 -78 96 -219 108 -257 4 -15 2 -23 -5 -23 -6 0 -8 5 -5 10 3
6 -1 10 -10 10 -11 0 -14 -7 -10 -27 3 -16 -14 28 -38 97 -63 179 -152 379
-175 394 -5 3 8 -28 30 -68 31 -60 89 -248 88 -283 -1 -4 -23 38 -50 94 -48
102 -133 234 -172 269 -11 11 4 -15 34 -58 64 -89 127 -202 153 -273 10 -27
23 -56 28 -62 15 -20 -12 -15 -68 13 -27 13 -42 22 -32 19 53 -15 66 -13 22 4
-27 10 -51 17 -53 16 -1 -1 0 -9 4 -18 3 -9 35 -26 71 -39 43 -15 68 -30 73
-43 4 -11 12 -69 17 -128 8 -104 8 -107 -12 -107 -11 0 -15 4 -10 8 14 10 20
76 6 67 -6 -3 -11 1 -11 9 0 9 -5 15 -12 14 -7 -2 -17 7 -23 20 -5 12 -14 22
-20 22 -6 0 -21 32 -34 70 -14 39 -29 74 -34 77 -7 4 -8 -1 -3 -13 17 -43 56
-207 50 -215 -3 -5 1 -9 8 -9 9 0 9 -3 -2 -10 -12 -8 -13 -11 -1 -19 15 -10
30 -77 30 -141 1 -31 -2 -41 -9 -30 -5 9 -22 13 -42 12 -34 -2 -115 39 -187
96 -18 15 -43 34 -55 42 -18 12 -17 10 4 -14 14 -15 57 -49 96 -75 l72 -47
-67 -13 c-36 -7 -72 -13 -79 -14 -7 0 -10 -7 -7 -15 4 -10 0 -12 -12 -8 -10 4
-14 4 -10 0 4 -4 -5 -21 -20 -38 l-28 -30 38 32 c23 19 49 32 65 32 l27 0 -23
-18 c-24 -19 -55 -70 -48 -81 3 -4 0 -13 -6 -21 -8 -12 -8 -11 -3 5 5 15 3 17
-6 8 -21 -21 1 -36 23 -16 20 17 20 17 15 -2 -3 -11 -9 -33 -12 -50 l-7 -30
19 26 c19 27 86 89 97 89 3 0 6 -9 6 -20 0 -12 -5 -17 -14 -14 -8 3 -17 0 -21
-6 -3 -6 -3 -10 2 -9 20 3 25 -2 13 -16 -7 -9 -10 -18 -6 -22 3 -3 6 0 7 8 0
8 4 6 9 -6 8 -18 9 -18 10 5 1 25 1 25 10 3 5 -13 17 -23 25 -23 11 0 15 -6
10 -19 -4 -13 5 -28 31 -50 l36 -32 -17 -70 c-10 -39 -28 -91 -40 -115 -20
-39 -20 -43 -4 -28 10 9 28 49 40 90 19 64 25 74 45 74 27 0 43 20 17 21 -14
0 -14 2 5 9 22 9 31 30 12 30 -20 0 -6 62 16 72 12 6 25 19 27 29 6 22 37 26
37 4 0 -8 5 -15 10 -15 21 0 9 -43 -19 -71 -16 -16 -28 -29 -26 -29 13 0 77
46 85 60 12 23 13 33 2 26 -11 -6 -2 66 10 81 5 6 9 34 10 62 0 28 4 53 8 56
10 6 15 -19 31 -163 l13 -114 -33 -111 c-41 -143 -98 -263 -151 -321 -24 -26
-41 -49 -38 -52 14 -14 153 169 142 188 -4 6 -3 8 3 5 6 -4 24 19 42 51 l31
57 -6 -90 c-8 -105 -13 -113 -146 -241 -86 -82 -211 -174 -237 -174 -32 0
-359 114 -396 138 -65 42 -105 84 -132 137 -14 28 -39 69 -55 92 l-29 43 22
29 c12 16 27 27 33 25 7 -3 25 9 41 26 32 33 68 44 44 13 -11 -14 -9 -14 9 1
13 11 41 22 63 25 22 3 40 11 40 16 0 15 -38 23 -116 24 -54 1 -82 -5 -121
-23 -28 -13 -55 -29 -58 -35 -4 -6 9 -1 30 11 20 12 35 17 33 12 -11 -25 -45
-74 -50 -74 -4 0 -33 33 -65 72 -32 40 -71 87 -87 105 l-29 32 21 43 c22 46
126 167 114 134 -4 -13 -3 -17 5 -12 7 4 10 2 6 -7 -2 -7 15 -41 40 -74 44
-61 88 -103 49 -47 -25 36 -83 150 -83 164 0 20 16 8 50 -38 19 -26 35 -55 35
-65 0 -18 21 -37 40 -36 6 0 -1 6 -14 13 -16 9 -20 15 -12 21 7 4 20 0 29 -8
33 -29 143 -78 190 -83 26 -4 73 -15 104 -25 40 -13 70 -17 103 -12 l46 6 -57
23 c-65 26 -155 93 -193 144 l-26 34 36 -27 c20 -15 42 -27 50 -27 8 0 19 -4
25 -9 13 -13 159 -61 181 -60 10 0 -1 6 -24 13 -23 8 -63 25 -89 40 -52 29
-58 31 -48 14 4 -7 3 -8 -5 -4 -6 4 -9 11 -6 16 3 5 -4 15 -15 22 -12 7 -33
35 -46 61 -14 27 -48 74 -77 105 -29 31 -75 89 -101 127 -66 93 -67 94 -50 45
8 -23 13 -44 11 -47 -3 -2 -19 41 -37 97 -18 56 -34 99 -37 97 -3 -4 15 -96
33 -162 4 -15 3 -16 -4 -6 -8 11 -11 9 -17 -8 -6 -20 -25 -20 -25 0 0 6 5 7
10 4 6 -3 10 1 10 11 0 13 -3 14 -15 4 -9 -7 -15 -30 -16 -54 0 -22 -8 -72
-17 -111 l-17 -70 -24 55 c-31 71 -57 163 -66 231 -4 30 -11 59 -16 64 -4 6
-9 40 -11 75 l-3 65 -12 -55 -12 -55 4 65 c4 63 4 64 -7 23 -12 -46 -28 -58
-28 -20 0 12 -7 55 -17 96 l-17 73 31 27 c17 14 55 68 83 119 29 50 54 92 56
92 2 0 -3 -19 -12 -42 -8 -22 -13 -43 -11 -45 2 -2 14 23 26 54 40 110 60 135
136 173 73 37 102 72 90 110 -5 17 -15 20 -69 20 -54 0 -66 -3 -86 -25 -13
-14 -29 -25 -37 -25 -7 0 -13 -6 -13 -14 0 -33 -41 -64 -107 -82 -62 -16 -203
-78 -203 -89 0 -2 30 9 68 26 l67 30 -28 -29 c-15 -15 -25 -31 -21 -34 3 -4
-2 -18 -12 -33 -12 -19 -20 -23 -28 -15 -8 8 -7 13 4 20 22 14 7 12 -31 -4
-69 -28 -152 -39 -212 -26 l-56 11 -41 75 c-23 40 -49 105 -58 144 -16 69 -17
70 -49 70 l-33 0 0 -461z m2260 -26 c27 -40 50 -89 54 -112 10 -67 26 -284 21
-289 -3 -3 -5 4 -5 16 0 62 -122 394 -191 519 -21 38 -21 38 27 -12 26 -27 68
-82 94 -122z m-293 -215 c-3 -8 -6 -5 -6 6 -1 11 2 17 5 13 3 -3 4 -12 1 -19z
m-177 -39 c0 -6 -4 -7 -10 -4 -5 3 -10 11 -10 16 0 6 5 7 10 4 6 -3 10 -11 10
-16z m-190 -49 c6 -20 6 -30 1 -24 -11 10 -27 72 -17 63 4 -4 11 -21 16 -39z
m-934 -155 c9 -44 27 -110 39 -147 27 -78 24 -90 -6 -20 -32 73 -59 201 -57
267 1 44 2 49 5 20 2 -22 11 -76 19 -120z m-79 73 c-3 -7 -5 -2 -5 12 0 14 2
19 5 13 2 -7 2 -19 0 -25z m-37 -33 c-6 -30 -8 -33 -9 -13 -1 25 8 62 14 56 2
-2 -1 -21 -5 -43z m27 -22 c-3 -10 -5 -4 -5 12 0 17 2 24 5 18 2 -7 2 -21 0
-30z m1105 13 c10 -15 10 -46 -1 -46 -31 0 -69 24 -74 46 -4 23 -2 24 32 18
20 -4 39 -12 43 -18z m410 -35 c44 -17 78 -58 78 -93 l0 -33 -24 39 c-26 43
-59 65 -96 65 -25 0 -25 0 -2 -9 l22 -9 -37 -76 -38 -76 -7 48 c-9 60 6 117
35 138 25 17 37 18 69 6z m-1555 -38 c-3 -10 -5 -4 -5 12 0 17 2 24 5 18 2 -7
2 -21 0 -30z m147 -126 l28 -65 -29 -39 c-17 -21 -44 -58 -61 -82 l-32 -45 0
60 c0 57 5 99 32 264 l12 75 11 -51 c6 -28 24 -80 39 -117z m1031 109 c-21
-15 -95 -8 -95 9 0 7 -2 20 -5 28 -5 11 6 10 55 -6 49 -16 57 -22 45 -31z
m-1294 -46 c-4 -41 -9 -59 -10 -39 -1 42 11 139 16 124 1 -6 -1 -44 -6 -85z
m146 58 c-3 -7 -5 -2 -5 12 0 14 2 19 5 13 2 -7 2 -19 0 -25z m1203 -28 c9
-16 7 -20 -12 -24 -39 -7 -69 -5 -63 4 3 5 20 7 38 4 26 -4 29 -3 14 6 -9 6
-15 15 -12 21 10 15 23 11 35 -11z m340 13 c0 -5 -7 -16 -15 -27 -8 -10 -19
-43 -25 -73 -12 -56 -33 -68 -38 -22 -2 26 52 129 68 129 6 0 10 -3 10 -7z
m-153 -35 c-3 -8 -6 -5 -6 6 -1 11 2 17 5 13 3 -3 4 -12 1 -19z m-470 6 c-3
-3 -12 -4 -19 -1 -8 3 -5 6 6 6 11 1 17 -2 13 -5z m166 -1 c-7 -2 -19 -2 -25
0 -7 3 -2 5 12 5 14 0 19 -2 13 -5z m500 -44 l16 -40 -47 -34 c-50 -36 -72
-37 -47 -2 8 12 15 31 15 43 0 36 21 83 34 78 8 -3 20 -23 29 -45z m-1828 -40
c-9 -41 -20 -119 -24 -174 -8 -96 -8 -97 -10 -30 -1 85 32 295 45 282 2 -2 -3
-37 -11 -78z m1275 -31 c0 -57 -18 -193 -25 -186 -2 2 0 42 4 89 3 48 3 100 0
117 -3 17 -4 34 -1 37 16 15 22 -1 22 -57z m317 -143 c-2 -88 -11 -200 -20
-250 -8 -49 -20 -128 -27 -175 -14 -105 -46 -232 -73 -285 -24 -49 -114 -162
-135 -170 -14 -5 -14 -4 0 12 28 32 115 229 105 239 -1 1 -19 -30 -40 -69 -20
-40 -47 -83 -58 -97 -20 -24 -20 -23 1 10 38 60 107 213 124 274 26 89 46 213
46 284 0 38 4 62 11 62 8 0 9 -26 5 -87 -4 -48 -4 -85 -1 -82 2 3 14 48 26
100 14 65 23 148 27 269 3 96 8 164 10 150 2 -14 2 -97 -1 -185z m-349 145
c-4 -17 -48 -27 -48 -11 0 5 5 22 12 36 11 25 13 26 25 9 8 -10 12 -25 11 -34z
m710 -20 c0 -9 -3 -7 -8 5 -5 11 -8 29 -8 40 0 16 2 15 8 -5 4 -14 8 -32 8
-40z m-1530 25 c-3 -3 -9 2 -12 12 -6 14 -5 15 5 6 7 -7 10 -15 7 -18z m1405
-98 c-20 -33 -88 -86 -111 -87 -10 0 -8 9 7 33 11 17 29 48 39 68 9 20 31 48
47 62 l30 25 3 -34 c2 -21 -4 -48 -15 -67z m-108 63 l29 -30 -28 -59 c-16 -32
-27 -63 -25 -69 6 -18 88 24 125 64 23 24 34 30 34 19 0 -9 -38 -54 -83 -99
l-84 -84 -12 110 c-6 60 -9 113 -6 118 4 6 1 10 -4 10 -6 0 -11 5 -11 11 0 5
5 7 10 4 6 -3 10 3 10 14 0 29 11 26 45 -9z m-1636 -54 c-9 -8 -10 -5 -5 14 3
14 7 34 7 45 1 11 4 5 6 -14 3 -19 -1 -39 -8 -45z m48 7 c-3 -10 -5 -4 -5 12
0 17 2 24 5 18 2 -7 2 -21 0 -30z m1370 15 c-3 -8 -6 -5 -6 6 -1 11 2 17 5 13
3 -3 4 -12 1 -19z m-137 8 c0 -3 -4 -8 -10 -11 -5 -3 -10 -1 -10 4 0 6 5 11
10 11 6 0 10 -2 10 -4z m-1273 -78 c-3 -7 -5 -2 -5 12 0 14 2 19 5 13 2 -7 2
-19 0 -25z m50 -30 c-3 -7 -5 -2 -5 12 0 14 2 19 5 13 2 -7 2 -19 0 -25z m10
-70 c-3 -7 -5 -2 -5 12 0 14 2 19 5 13 2 -7 2 -19 0 -25z m-50 -10 c-3 -7 -5
-2 -5 12 0 14 2 19 5 13 2 -7 2 -19 0 -25z m1140 0 c-3 -7 -5 -2 -5 12 0 14 2
19 5 13 2 -7 2 -19 0 -25z m420 -10 c-3 -8 -6 -5 -6 6 -1 11 2 17 5 13 3 -3 4
-12 1 -19z m412 -28 c0 -10 -3 -8 -9 5 -12 27 -12 43 0 25 5 -8 9 -22 9 -30z
m-1912 8 c-3 -8 -6 -5 -6 6 -1 11 2 17 5 13 3 -3 4 -12 1 -19z m-190 -70 c-2
-18 -4 -6 -4 27 0 33 2 48 4 33 2 -15 2 -42 0 -60z m1689 7 c3 -90 6 -115 15
-115 23 0 0 -387 -30 -505 -37 -142 -119 -285 -194 -336 -28 -20 -27 -17 11
22 58 61 53 65 -9 7 -72 -68 -82 -60 -15 12 31 35 71 93 93 138 21 42 43 82
50 87 14 11 43 77 43 97 0 7 -9 -2 -20 -19 -31 -51 -32 -39 -3 25 47 102 53
156 46 388 -5 183 -3 244 9 244 2 0 4 -20 4 -45z m479 -115 c48 -123 61 -172
86 -320 18 -103 31 -226 34 -300 2 -69 1 -111 -1 -95 -17 97 -77 386 -99 470
-15 55 -23 111 -20 125 3 16 2 20 -3 12 -10 -15 -45 129 -36 151 3 8 -2 31
-10 52 -15 36 -21 63 -12 54 3 -3 30 -70 61 -149z m-1919 -27 c-5 -5 -46 116
-45 131 0 6 11 -20 25 -58 13 -38 22 -71 20 -73z m1218 38 c-9 -23 -18 -40
-20 -38 -2 2 4 22 13 45 9 23 18 40 20 38 2 -2 -4 -22 -13 -45z m-1100 -56
c44 -67 102 -124 167 -167 27 -17 47 -33 45 -36 -5 -5 -83 47 -143 96 -54 43
-134 162 -109 162 2 0 20 -25 40 -55z m-597 -22 c-3 -10 -5 -4 -5 12 0 17 2
24 5 18 2 -7 2 -21 0 -30z m606 -195 c20 -31 37 -62 37 -68 0 -6 30 -25 68
-43 50 -23 81 -31 124 -32 l57 0 -46 -24 c-41 -20 -50 -22 -83 -11 -37 12 -53
13 -129 10 -51 -3 -57 4 -66 78 -4 30 -10 62 -13 71 -3 9 14 0 38 -19 47 -37
46 -21 -2 19 -15 13 -25 27 -22 32 2 4 -13 43 -34 86 -22 43 -42 89 -46 103
-4 14 13 -13 37 -60 24 -47 60 -111 80 -142z m-256 140 c-3 -8 -6 -5 -6 6 -1
11 2 17 5 13 3 -3 4 -12 1 -19z m1339 -141 c-44 -136 -51 -144 -142 -176 -43
-16 -110 -43 -149 -60 l-70 -32 -27 30 c-15 17 -25 37 -22 45 5 12 11 12 43
-1 38 -15 39 -15 95 21 31 20 109 87 174 150 64 63 118 111 120 107 1 -5 -8
-42 -22 -84z m-1352 57 c3 -8 2 -12 -4 -9 -6 3 -10 10 -10 16 0 14 7 11 14 -7z
m33 -31 c-3 -10 -5 -4 -5 12 0 17 2 24 5 18 2 -7 2 -21 0 -30z m-44 -8 c4 -8
2 -17 -3 -20 -6 -4 -10 3 -10 14 0 25 6 27 13 6z m-3 -42 c0 -5 -5 -26 -11
-47 -12 -44 -15 -74 -18 -158 0 -32 -5 -58 -11 -58 -10 0 -4 105 11 185 6 28
10 58 10 68 0 9 4 17 10 17 5 0 9 -3 9 -7z m67 -45 c-3 -8 -6 -5 -6 6 -1 11 2
17 5 13 3 -3 4 -12 1 -19z m10 -40 c-3 -8 -6 -5 -6 6 -1 11 2 17 5 13 3 -3 4
-12 1 -19z m-252 -118 c33 -33 57 -60 54 -60 -2 0 -31 27 -64 60 -33 33 -57
60 -54 60 2 0 31 -27 64 -60z m1595 16 c0 -2 -8 -10 -17 -17 -16 -13 -17 -12
-4 4 13 16 21 21 21 13z m-1266 -69 c4 4 4 -1 0 -11 -6 -17 -8 -16 -20 5 -7
13 -13 29 -13 34 0 6 5 0 12 -13 7 -12 16 -19 21 -15z m1346 4 c0 -5 -7 -17
-16 -25 -8 -9 -13 -16 -10 -16 8 0 -22 -81 -36 -98 -7 -8 -13 -20 -14 -28 -2
-15 -68 -97 -104 -129 -13 -11 1 12 30 50 48 65 127 205 115 205 -3 0 2 11 11
25 17 26 24 31 24 16z m-1250 -21 c6 -11 8 -20 6 -20 -3 0 -10 9 -16 20 -6 11
-8 20 -6 20 3 0 10 -9 16 -20z m-281 -42 c-1 -35 -2 -38 -8 -18 -7 23 -4 60 5
60 2 0 4 -19 3 -42z m192 19 c-10 -9 -11 -8 -5 6 3 10 9 15 12 12 3 -3 0 -11
-7 -18z m39 -57 c11 -22 18 -40 15 -40 -6 0 -45 62 -45 73 0 16 11 5 30 -33z
m187 -90 c25 -19 25 -20 4 -20 -12 0 -20 4 -17 8 3 5 -13 26 -35 48 -22 21
-45 48 -51 59 -6 11 8 -1 31 -27 23 -26 54 -57 68 -68z m-126 83 c13 -16 12
-17 -3 -4 -17 13 -22 21 -14 21 2 0 10 -8 17 -17z m30 -40 c13 -16 12 -17 -3
-4 -10 7 -18 15 -18 17 0 8 8 3 21 -13z m69 -50 c0 -7 -39 17 -46 28 -3 6 5 3
20 -6 14 -10 26 -19 26 -22z m949 -154 c-19 -10 -41 -18 -49 -18 -8 0 0 6 18
14 18 8 31 19 28 24 -3 5 3 7 15 4 20 -6 19 -8 -12 -24z"/>
<path d="M2120 1400 c-11 -7 -12 -12 -4 -20 8 -8 13 -6 17 9 3 12 4 21 4 21
-1 0 -9 -5 -17 -10z"/>
<path d="M2031 1236 c-9 -10 -9 -16 -1 -21 17 -10 37 12 24 25 -8 8 -15 6 -23
-4z"/>
<path d="M1992 970 c0 -14 2 -19 5 -12 2 6 2 18 0 25 -3 6 -5 1 -5 -13z"/>
<path d="M1860 310 c-17 -33 -28 -60 -25 -60 2 0 18 27 35 60 17 33 28 60 25
60 -2 0 -18 -27 -35 -60z"/>
<path d="M2434 1018 c4 -13 8 -32 9 -42 1 -11 7 -21 14 -23 9 -3 8 8 -3 41
-16 46 -32 66 -20 24z"/>
<path d="M208 2593 c7 -3 16 -2 19 1 4 3 -2 6 -13 5 -11 0 -14 -3 -6 -6z"/>
<path d="M420 2584 c20 -9 71 -19 117 -22 71 -4 85 -2 107 16 l26 20 -24 -2
c-13 0 -24 -5 -23 -11 3 -17 -101 -12 -208 10 -29 6 -29 5 5 -11z"/>
<path d="M1227 2565 c28 -19 80 -60 114 -92 47 -42 53 -46 24 -14 -43 46 -164
141 -180 141 -5 0 13 -16 42 -35z"/>
<path d="M1210 2515 c13 -14 26 -25 28 -25 3 0 -5 11 -18 25 -13 14 -26 25
-28 25 -3 0 5 -11 18 -25z"/>
<path d="M1685 2490 c10 -11 20 -20 23 -20 3 0 -3 9 -13 20 -10 11 -20 20 -23
20 -3 0 3 -9 13 -20z"/>
<path d="M1280 2433 c18 -24 35 -43 37 -43 7 0 -35 56 -54 71 -9 8 -2 -5 17
-28z"/>
<path d="M1730 2430 c12 -16 24 -30 26 -30 3 0 -4 14 -16 30 -12 17 -24 30
-26 30 -3 0 4 -13 16 -30z"/>
<path d="M902 2228 c0 -179 2 -205 33 -358 19 -91 39 -178 45 -194 9 -26 9
-27 -5 -16 -8 7 -15 18 -15 24 0 7 -6 20 -13 31 -11 14 -16 15 -22 5 -6 -9 -4
-11 4 -6 8 5 11 3 9 -7 -3 -14 90 -152 98 -145 2 2 -6 32 -16 67 -16 50 -20
91 -20 199 1 104 3 132 11 117 6 -11 52 -59 102 -108 49 -48 88 -89 86 -91 -2
-2 -13 -8 -24 -14 -17 -10 -15 -11 12 -6 28 5 40 0 80 -33 59 -49 120 -88 153
-97 16 -5 10 2 -16 17 -49 29 -150 103 -158 116 -8 12 11 18 54 16 142 -6 232
-42 249 -98 14 -47 3 77 -15 178 -16 83 -86 309 -110 357 -27 52 -13 42 17
-12 17 -30 27 -46 24 -35 -8 27 -90 175 -110 200 -15 18 -15 17 0 -13 22 -45
77 -212 73 -222 -9 -24 -251 122 -378 227 -25 21 -36 28 -26 15 50 -58 230
-185 358 -252 38 -20 59 -38 62 -53 15 -64 36 -229 31 -237 -3 -4 1 -10 7 -13
7 -2 10 -8 6 -12 -9 -10 -171 83 -226 130 -83 71 -246 248 -290 314 -42 64
-66 121 -44 107 11 -6 -10 79 -21 91 -3 2 -5 -82 -5 -189z m506 -3 c-3 -3 -9
2 -12 12 -6 14 -5 15 5 6 7 -7 10 -15 7 -18z m-302 -284 c22 -29 65 -82 96
-116 53 -58 56 -63 36 -68 -12 -3 -25 -4 -30 -1 -10 6 -116 129 -141 164 -10
14 -16 18 -13 8 3 -11 1 -15 -8 -12 -8 3 -26 31 -40 63 -30 67 -33 83 -10 55
16 -20 16 -19 -8 36 -9 19 -19 51 -23 70 -5 28 4 17 48 -55 30 -49 72 -114 93
-144z m-189 127 c-3 -8 -6 -5 -6 6 -1 11 2 17 5 13 3 -3 4 -12 1 -19z m513
-293 c0 -10 -16 -4 -40 16 l-25 20 33 -16 c17 -8 32 -18 32 -20z m59 -24 c7
-5 12 -13 10 -19 -3 -7 -14 -3 -29 8 -25 20 -10 29 19 11z"/>
<path d="M1565 2360 c9 -16 18 -30 21 -30 2 0 -2 14 -11 30 -9 17 -18 30 -21
30 -2 0 2 -13 11 -30z"/>
<path d="M1705 2290 c9 -16 18 -30 21 -30 2 0 -2 14 -11 30 -9 17 -18 30 -21
30 -2 0 2 -13 11 -30z"/>
<path d="M666 2155 c-3 -9 -6 -26 -5 -38 1 -14 4 -9 9 13 9 37 7 52 -4 25z"/>
<path d="M801 1983 c0 -34 2 -64 7 -66 4 -3 6 16 4 41 -5 80 -9 90 -11 25z"/>
<path d="M1810 1955 c0 -5 5 -17 10 -25 5 -8 10 -10 10 -5 0 6 -5 17 -10 25
-5 8 -10 11 -10 5z"/>
<path d="M1830 1902 c0 -20 32 -92 41 -92 4 0 -1 21 -12 47 -22 52 -29 62 -29
45z"/>
<path d="M1430 1826 c0 -2 7 -9 15 -16 9 -7 15 -8 15 -2 0 5 -7 12 -15 16 -8
3 -15 4 -15 2z"/>
<path d="M772 1730 c0 -19 2 -27 5 -17 2 9 2 25 0 35 -3 9 -5 1 -5 -18z"/>
<path d="M1120 1705 c-7 -8 -8 -15 -2 -15 5 0 15 7 22 15 7 8 8 15 2 15 -5 0
-15 -7 -22 -15z"/>
<path d="M753 1695 c1 -11 -2 -21 -7 -22 -5 -1 -13 -7 -17 -15 -7 -10 -9 -10
-9 0 0 6 -4 12 -9 12 -14 0 -8 -34 8 -46 8 -6 11 -16 7 -23 -4 -6 -2 -28 5
-48 9 -27 14 -32 20 -21 15 26 22 144 10 164 -10 18 -11 18 -8 -1z"/>
<path d="M918 1261 c18 -17 43 -36 55 -42 13 -7 7 2 -13 20 -47 42 -84 61 -42
22z"/>
<path d="M870 1270 c8 -5 11 -10 6 -10 -5 0 1 -11 14 -25 12 -13 26 -23 29
-20 4 2 13 0 21 -5 10 -6 6 -10 -16 -15 -49 -11 -51 -13 -9 -15 22 -1 51 -6
65 -10 19 -6 11 -9 -35 -10 l-60 -3 55 -7 c30 -4 71 -10 90 -14 l35 -8 -33 31
c-18 17 -42 31 -53 31 -10 0 -19 5 -19 11 0 5 -16 17 -36 25 -20 8 -33 18 -30
21 8 8 -13 33 -28 33 -6 0 -4 -5 4 -10z"/>
<path d="M2476 1190 c3 -14 11 -32 16 -40 6 -10 7 -7 2 10 -3 14 -11 32 -16
40 -6 10 -7 7 -2 -10z"/>
<path d="M830 1140 c-18 -12 -2 -12 25 0 13 6 15 9 5 9 -8 0 -22 -4 -30 -9z"/>
<path d="M2510 1095 c0 -5 5 -17 10 -25 5 -8 10 -10 10 -5 0 6 -5 17 -10 25
-5 8 -10 11 -10 5z"/>
<path d="M308 1021 c-5 -31 -1 -58 15 -99 28 -73 31 -57 9 53 -18 88 -19 89
-24 46z"/>
<path d="M2556 968 c19 -61 43 -122 43 -112 1 14 -40 134 -46 134 -2 0 -1 -10
3 -22z"/>
<path d="M850 944 c0 -8 5 -12 10 -9 6 4 8 11 5 16 -9 14 -15 11 -15 -7z"/>
<path d="M1470 855 c-11 -13 -10 -14 4 -9 9 3 16 10 16 15 0 13 -6 11 -20 -6z"/>
<path d="M1278 773 c7 -3 16 -2 19 1 4 3 -2 6 -13 5 -11 0 -14 -3 -6 -6z"/>
<path d="M1236 15 c-11 -8 -15 -15 -9 -15 6 0 16 7 23 15 16 19 11 19 -14 0z"/>
</g>
</svg>
